HIERARCHY
ROOT hip
{
  OFFSET 0 0 0
  CHANNELS 6 Xposition Yposition Zposition Zrotation Yrotation Xrotation
  JOINT abdomen
  {
    OFFSET 0 20.6881 -0.73152
    CHANNELS 3 Zrotation Xrotation Yrotation
    JOINT chest
    {
      OFFSET 0 11.7043 -0.48768
      CHANNELS 3 Zrotation Xrotation Yrotation
      JOINT neck
      {
        OFFSET 0 22.1894 -2.19456
        CHANNELS 3 Zrotation Xrotation Yrotation
        JOINT head
        {
          OFFSET -0.24384 7.07133 1.2192
          CHANNELS 3 Zrotation Xrotation Yrotation
          JOINT leftEye
          {
            OFFSET 4.14528 8.04674 8.04672
            CHANNELS 3 Zrotation Xrotation Yrotation
            End Site
            {
              OFFSET 1 0 0
            }
          }
          JOINT rightEye
          {
            OFFSET -3.6576 8.04674 8.04672
            CHANNELS 3 Zrotation Xrotation Yrotation
            End Site
            {
              OFFSET 1 0 0
            }
          }
        }
      }
      JOINT rCollar
      {
        OFFSET -2.68224 19.2634 -4.8768
        CHANNELS 3 Zrotation Xrotation Yrotation
        JOINT rShldr
        {
          OFFSET -8.77824 -1.95073 1.46304
          CHANNELS 3 Zrotation Xrotation Yrotation
          JOINT rForeArm
          {
            OFFSET -28.1742 -1.7115 0.48768
            CHANNELS 3 Zrotation Xrotation Yrotation
            JOINT rHand
            {
              OFFSET -22.5879 0.773209 7.07136
              CHANNELS 3 Zrotation Xrotation Yrotation
              JOINT rThumb1
              {
                OFFSET -1.2192 -0.487915 3.41376
                CHANNELS 3 Zrotation Xrotation Yrotation
                JOINT rThumb2
                {
                  OFFSET -3.37035 -0.52449 3.41376
                  CHANNELS 3 Zrotation Xrotation Yrotation
                  End Site
                  {
                    OFFSET -1.78271 -1.18214 1.43049
                  }
                }
              }
              JOINT rIndex1
              {
                OFFSET -7.75947 0.938293 5.60832
                CHANNELS 3 Zrotation Xrotation Yrotation
                JOINT rIndex2
                {
                  OFFSET -2.54057 -0.884171 1.56538
                  CHANNELS 3 Zrotation Xrotation Yrotation
                  End Site
                  {
                    OFFSET -1.62519 -0.234802 1.16502
                  }
                }
              }
              JOINT rMid1
              {
                OFFSET -8.24714 1.18213 3.41376
                CHANNELS 3 Zrotation Xrotation Yrotation
                JOINT rMid2
                {
                  OFFSET -3.10165 -0.590103 1.0647
                  CHANNELS 3 Zrotation Xrotation Yrotation
                  End Site
                  {
                    OFFSET -2.48547 -0.328903 0.83742
                  }
                }
              }
              JOINT rRing1
              {
                OFFSET -8.82822 0.546677 1.51678
                CHANNELS 3 Zrotation Xrotation Yrotation
                JOINT rRing2
                {
                  OFFSET -2.60934 -0.819778 -0.0198488
                  CHANNELS 3 Zrotation Xrotation Yrotation
                  End Site
                  {
                    OFFSET -2.33842 -0.294052 0.168128
                  }
                }
              }
              JOINT rPinky1
              {
                OFFSET -8.27202 -0.0477905 -0.4584
                CHANNELS 3 Zrotation Xrotation Yrotation
                JOINT rPinky2
                {
                  OFFSET -1.82734 -0.647385 -0.700984
                  CHANNELS 3 Zrotation Xrotation Yrotation
                  End Site
                  {
                    OFFSET -1.69225 -0.51767 -0.607171
                  }
                }
              }
            }
          }
        }
      }
      JOINT lCollar
      {
        OFFSET 2.68224 19.2634 -4.8768
        CHANNELS 3 Zrotation Xrotation Yrotation
        JOINT lShldr
        {
          OFFSET 8.77824 -1.95073 1.46304
          CHANNELS 3 Zrotation Xrotation Yrotation
          JOINT lForeArm
          {
            OFFSET 28.1742 -1.7115 0.48768
            CHANNELS 3 Zrotation Xrotation Yrotation
            JOINT lHand
            {
              OFFSET 22.5879 0.773209 7.07136
              CHANNELS 3 Zrotation Xrotation Yrotation
              JOINT lThumb1
              {
                OFFSET 1.2192 -0.487915 3.41376
                CHANNELS 3 Zrotation Xrotation Yrotation
                JOINT lThumb2
                {
                  OFFSET 3.37035 -0.52449 3.41376
                  CHANNELS 3 Zrotation Xrotation Yrotation
                  End Site
                  {
                    OFFSET 1.78271 -1.18214 1.43049
                  }
                }
              }
              JOINT lIndex1
              {
                OFFSET 7.75947 0.938293 5.60832
                CHANNELS 3 Zrotation Xrotation Yrotation
                JOINT lIndex2
                {
                  OFFSET 2.54057 -0.884171 1.56538
                  CHANNELS 3 Zrotation Xrotation Yrotation
                  End Site
                  {
                    OFFSET 1.62519 -0.234802 1.16502
                  }
                }
              }
              JOINT lMid1
              {
                OFFSET 8.24714 1.18213 3.41376
                CHANNELS 3 Zrotation Xrotation Yrotation
                JOINT lMid2
                {
                  OFFSET 3.10165 -0.590103 1.0647
                  CHANNELS 3 Zrotation Xrotation Yrotation
                  End Site
                  {
                    OFFSET 2.48547 -0.328903 0.83742
                  }
                }
              }
              JOINT lRing1
              {
                OFFSET 8.82822 0.546677 1.51678
                CHANNELS 3 Zrotation Xrotation Yrotation
                JOINT lRing2
                {
                  OFFSET 2.60934 -0.819778 -0.0198488
                  CHANNELS 3 Zrotation Xrotation Yrotation
                  End Site
                  {
                    OFFSET 2.33842 -0.294052 0.168128
                  }
                }
              }
              JOINT lPinky1
              {
                OFFSET 8.27202 -0.0477905 -0.4584
                CHANNELS 3 Zrotation Xrotation Yrotation
                JOINT lPinky2
                {
                  OFFSET 1.82734 -0.647385 -0.700984
                  CHANNELS 3 Zrotation Xrotation Yrotation
                  End Site
                  {
                    OFFSET 1.69225 -0.51767 -0.607171
                  }
                }
              }
            }
          }
        }
      }
    }
  }
  JOINT rButtock
  {
    OFFSET -8.77824 4.35084 1.2192
    CHANNELS 3 Zrotation Xrotation Yrotation
    JOINT rThigh
    {
      OFFSET 0 -1.70687 -2.19456
      CHANNELS 3 Zrotation Xrotation Yrotation
      JOINT rShin
      {
        OFFSET 0 -36.8199 0.73152
        CHANNELS 3 Zrotation Xrotation Yrotation
        JOINT rFoot
        {
          OFFSET 0.73152 -45.1104 -5.12064
          CHANNELS 3 Zrotation Xrotation Yrotation
          End Site
          {
            OFFSET -1.1221 -3.69964 12.103
          }
        }
      }
    }
  }
  JOINT lButtock
  {
    OFFSET 8.77824 4.35084 1.2192
    CHANNELS 3 Zrotation Xrotation Yrotation
    JOINT lThigh
    {
      OFFSET 0 -1.70687 -2.19456
      CHANNELS 3 Zrotation Xrotation Yrotation
      JOINT lShin
      {
        OFFSET 0 -36.8199 0.73152
        CHANNELS 3 Zrotation Xrotation Yrotation
        JOINT lFoot
        {
          OFFSET -0.73152 -45.1104 -5.12064
          CHANNELS 3 Zrotation Xrotation Yrotation
          End Site
          {
            OFFSET 1.1221 -3.69964 12.103
          }
        }
      }
    }
  }
}
MOTION
Frames:	4
Frame Time:	0.03333
0.06431145593523979 61.97589635848999 0.0364573672413826 -4.288652420043945 1.837498426437378 5.476619243621826 -2.259065866470337 14.602282524108887 3.7362759113311768 2.6874194145202637 -9.728093147277832 1.1180346012115479 -5.209613800048828 15.101655006408691 -3.721402645111084 8.925139427185059 -24.29822540283203 -5.240120887756348 -0.00010116917110281065 -0.020425887778401375 0.00206121732480824 -0.014195715077221394 0.016601817682385445 -0.025494787842035294 -0.022030362859368324 -0.008301515132188797 0.010706394910812378 44.6058235168457 37.5093994140625 19.64246940612793 -27.592464447021484 -28.48970603942871 64.83756256103516 -0.18011152744293213 -11.921845436096191 -1.685943603515625 0.01710791327059269 0.024175824597477913 0.017409464344382286 -0.017064562067389488 -0.025644049048423767 0.01216889452189207 0.032324060797691345 0.02244648151099682 -0.00738754216581583 7.790974140167236 5.455852031707764 0.37658780813217163 0.0018194305012002587 0.01529750693589449 -0.026388974860310555 2.883225202560425 0.9437723159790039 0.11415042728185654 0.025018660351634026 -0.01655520126223564 0.01605660282075405 10.218278884887695 0.7491708397865295 -0.00850575603544712 -0.013404307886958122 -0.01648973859846592 -0.019371217116713524 2.2275075912475586 -0.7014532685279846 -0.21237292885780334 0.017274100333452225 -0.04378298297524452 -0.010622533969581127 -52.59252166748047 39.69432067871094 -29.497314453125 26.95524024963379 -26.374528884887695 -61.33718490600586 0.22734539210796356 -13.75776195526123 2.0456881523132324 -0.030196260660886765 -0.027697758749127388 -0.007514366414397955 0.001982537331059575 -0.02799440175294876 -0.010015185922384262 -0.027587544173002243 -0.022336196154356003 0.03442438319325447 -7.725645542144775 5.501387596130371 -0.4195476770401001 0.0001710744109004736 -0.032458335161209106 0.04099035635590553 -2.916426658630371 0.9589173197746277 -0.07071910053491592 -0.035867735743522644 0.05724969506263733 0.04033185914158821 -10.301695823669434 0.7247208952903748 -0.0757630467414856 -0.020746011286973953 -0.0057152253575623035 0.04238860681653023 -2.277167320251465 -0.7454639673233032 0.17352862656116486 0.026749268174171448 0.007139325607568026 -0.048711005598306656 -24.853452682495117 -39.90379333496094 -20.62957191467285 -1.432000756263733 65.15493774414062 2.438232660293579 -3.643291473388672 -11.086579322814941 -9.837457656860352 0.028872787952423096 -0.019537746906280518 0.024171676486730576 30.667261123657227 -40.192874908447266 23.46771240234375 1.5401843786239624 66.218994140625 -2.7237894535064697 4.138409614562988 -10.875699996948242 13.302803993225098
0.1306395512074232 61.7523193359375 -0.021508708596229553 -4.283911228179932 2.2279140949249268 5.522555351257324 -2.2915589809417725 14.498525619506836 3.7449817657470703 2.744286298751831 -9.775068283081055 1.1270140409469604 -5.264925956726074 15.111589431762695 -3.813756227493286 9.021880149841309 -24.398897171020508 -5.326727390289307 0.03104400262236595 -0.056131552904844284 -0.0337054468691349 -0.026268577203154564 -0.02531294897198677 0.008255361579358578 -0.05606294423341751 -0.019902434200048447 0.03694358095526695 44.37152099609375 37.20033264160156 19.855236053466797 -27.50008201599121 -28.54420280456543 64.9643325805664 -0.1560802161693573 -11.635056495666504 -1.667028546333313 -0.0016150575829669833 0.0032956181094050407 0.045435428619384766 0.027994927018880844 -0.08746115118265152 -0.025446420535445213 0.02502729557454586 0.030436959117650986 -0.013598313555121422 7.836405277252197 5.51638650894165 0.3686789870262146 -0.03629272058606148 0.010025481693446636 -0.021381691098213196 2.8993003368377686 0.9360522031784058 0.08945569396018982 -0.02221568487584591 -0.046633899211883545 0.034621115773916245 10.108865737915039 0.7219476699829102 -0.04919297620654106 0.03608787804841995 -0.03719211742281914 -0.021213246509432793 2.252211809158325 -0.6959043145179749 -0.17043137550354004 0.015520773828029633 -0.04773075878620148 0.038761623203754425 -52.37685012817383 39.770843505859375 -29.804243087768555 27.008087158203125 -26.476171493530273 -61.31910705566406 0.29252398014068604 -13.977191925048828 2.1484854221343994 -0.016609549522399902 -0.018850358203053474 -0.038617026060819626 0.0012230726424604654 -0.03751729428768158 0.019710596650838852 -0.10523390769958496 0.009694037027657032 0.05104302987456322 -7.745578289031982 5.489046573638916 -0.4327053427696228 0.028137153014540672 -0.05973519757390022 0.04135238751769066 -2.8753554821014404 0.9418910145759583 -0.03982505947351456 -0.11050961911678314 -0.008952847681939602 0.04841889441013336 -10.33892822265625 0.6949324607849121 -0.09798283129930496 0.0004216372035443783 -0.021695783361792564 0.023579642176628113 -2.322439670562744 -0.7774390578269958 0.13547289371490479 0.04099969565868378 -0.007538642268627882 -0.05414381995797157 -24.86743927001953 -39.953372955322266 -20.622573852539062 -1.5865920782089233 64.98509216308594 2.4668760299682617 -3.518110513687134 -11.047654151916504 -9.537074089050293 0.030077273026108742 0.0037627120036631823 0.01495745126157999 30.495317459106445 -40.28853988647461 23.36188507080078 1.4034210443496704 66.13163757324219 -2.7093701362609863 4.186687469482422 -10.97822380065918 13.319473266601562
0.3262612968683243 50.80992579460144 -0.16127894632518291 -0.7845838069915771 -53.758296966552734 18.289358139038086 -0.9091547727584839 11.859912872314453 13.689476013183594 -2.011732339859009 -12.572306632995605 3.3984062671661377 -0.9759215116500854 12.852259635925293 9.70788860321045 5.554563522338867 -22.67862892150879 18.83296775817871 0.20651859045028687 0.08186978101730347 -0.20051150023937225 -0.04500288516283035 0.05884478613734245 0.013493414968252182 0.020713500678539276 -0.11654411256313324 -0.19995445013046265 47.41095733642578 80.16675567626953 17.406723022460938 -23.672700881958008 -49.027069091796875 102.64175415039062 -31.320547103881836 -76.73434448242188 -39.13957595825195 0.08822040259838104 -0.09548613429069519 -0.0539095513522625 0.19972853362560272 -0.3439934551715851 0.0246348325163126 0.05198516324162483 -0.09271714836359024 -0.13905298709869385 7.569634437561035 5.490410327911377 0.1531250923871994 0.1003682017326355 0.11387153714895248 0.051941100507974625 2.7310826778411865 0.9367912411689758 0.26997020840644836 -0.26002925634384155 -0.3163164258003235 0.14944735169410706 9.915196418762207 0.6010169386863708 -0.05586196854710579 0.14723314344882965 -0.14974431693553925 -0.09712892025709152 2.1212174892425537 -0.9887683391571045 -0.15624256432056427 -0.13112612068653107 -0.2454683929681778 -0.16969171166419983 -61.600948333740234 3.2967138290405273 -35.47380447387695 28.98821258544922 -33.552452087402344 -72.09375762939453 0.4061562716960907 20.786327362060547 -2.960257053375244 -0.16442431509494781 0.036170221865177155 -0.20026996731758118 -0.1730242818593979 0.04709089547395706 -0.03933874890208244 0.02131158858537674 0.16923969984054565 -0.16754432022571564 -7.846339702606201 5.604875564575195 -0.44684529304504395 -0.06490860134363174 0.1508200317621231 0.05466442182660103 -2.9959046840667725 0.8093382716178894 0.057820048183202744 -0.14446598291397095 0.06144903227686882 0.1253926306962967 -10.444286346435547 0.6215128302574158 -0.34788748621940613 -0.1256343275308609 0.10949429869651794 0.07027175277471542 -2.210333824157715 -0.6338908672332764 0.24779559671878815 -0.05475408583879471 -0.2264520227909088 -0.2593242824077606 -28.2779541015625 -31.16515350341797 -30.578523635864258 -10.421806335449219 83.00057983398438 12.286913871765137 -10.973267555236816 -25.94676971435547 -22.67791175842285 -0.07344309240579605 -0.24549897015094757 0.04055032879114151 72.58892822265625 -45.36954879760742 65.20069885253906 3.9937198162078857 74.07303619384766 -3.995391845703125 -0.9915260076522827 -1.4261765480041504 0.4918286204338074
0.45550744980573654 51.78908109664917 -0.15272041782736778 -11.339391708374023 -53.58769989013672 12.105226516723633 0.8122291564941406 10.466592788696289 14.48362922668457 -1.3760583400726318 -12.777700424194336 3.2426328659057617 -1.4194414615631104 13.225343704223633 9.278325080871582 7.928564071655273 -21.447895050048828 18.883974075317383 -0.05850038677453995 0.24804289638996124 0.04514925554394722 -0.27107128500938416 0.028817860409617424 0.14596806466579437 0.029386600479483604 -0.08286174386739731 -0.16709356009960175 50.06334686279297 80.32002258300781 17.13788414001465 -27.57575225830078 -43.91961669921875 90.33775329589844 -34.02159881591797 -78.50090026855469 -40.86165237426758 0.05938131362199783 -0.001412666286341846 0.27590057253837585 0.2118179351091385 -0.018505342304706573 -0.023306727409362793 0.14446820318698883 0.11887459456920624 -0.15952298045158386 7.943709373474121 5.411604881286621 0.3258028030395508 0.06025753170251846 -0.02274496480822563 -0.12759828567504883 2.9147257804870605 0.9650015234947205 0.1997363269329071 -0.21062271296977997 -0.1995687335729599 0.0670415610074997 9.935442924499512 0.6098588109016418 0.21926943957805634 0.2828533351421356 0.05305096507072449 -0.25214943289756775 2.0722391605377197 -0.6946223974227905 0.09469542652368546 -0.1367926150560379 -0.30298230051994324 -0.20815831422805786 -64.56794738769531 2.235574245452881 -35.29304885864258 28.459630966186523 -35.6939697265625 -75.88093566894531 0.04586392641067505 19.74578857421875 -1.913349986076355 -0.3681463897228241 0.09121119230985641 -0.07481100410223007 0.09639477729797363 0.10389192402362823 -0.012546039186418056 -0.15180614590644836 -0.03814135119318962 0.003841163357719779 -7.804073810577393 5.5697150230407715 -0.439908504486084 0.18694838881492615 -0.2367136925458908 -0.06095093861222267 -2.7592995166778564 0.8566673994064331 -0.09642275422811508 -0.00806464720517397 0.21217457950115204 -0.36277350783348083 -10.468788146972656 0.704393744468689 -0.038851745426654816 0.0427461713552475 -0.23994024097919464 0.09302280098199844 -2.3762121200561523 -0.7625099420547485 0.21459461748600006 -0.17640970647335052 -0.15354672074317932 -0.27749931812286377 -27.544578552246094 -29.20697021484375 -33.62175369262695 -6.861824035644531 80.76376342773438 8.378113746643066 -13.456559181213379 -26.896024703979492 -24.857534408569336 -0.0693204328417778 0.11050903052091599 -0.30816760659217834 76.04437255859375 -42.39096450805664 67.6502914428711 2.259234666824341 74.4731674194336 -2.2962448596954346 0.2888292670249939 0.5278632640838623 0.811145007610321
